<svg xmlns="http://www.w3.org/2000/svg" viewBox="0 0 580 1490" width="580" height="1490">
  <defs>
    <linearGradient id="bgGrad" x1="0%" y1="0%" x2="30%" y2="100%">
      <stop offset="0%" style="stop-color:#0c0c14"/>
      <stop offset="100%" style="stop-color:#14142a"/>
    </linearGradient>
    <linearGradient id="notionG" x1="0%" y1="0%" x2="0%" y2="100%">
      <stop offset="0%" style="stop-color:#22223a"/>
      <stop offset="100%" style="stop-color:#16162a"/>
    </linearGradient>
    <linearGradient id="obsidianG" x1="0%" y1="0%" x2="0%" y2="100%">
      <stop offset="0%" style="stop-color:#1e1838"/>
      <stop offset="100%" style="stop-color:#130e28"/>
    </linearGradient>
    <linearGradient id="onenoteG" x1="0%" y1="0%" x2="0%" y2="100%">
      <stop offset="0%" style="stop-color:#38102e"/>
      <stop offset="100%" style="stop-color:#26081e"/>
    </linearGradient>
    <linearGradient id="evernoteG" x1="0%" y1="0%" x2="0%" y2="100%">
      <stop offset="0%" style="stop-color:#0d3018"/>
      <stop offset="100%" style="stop-color:#071e0e"/>
    </linearGradient>
    <linearGradient id="transformG" x1="0%" y1="0%" x2="100%" y2="100%">
      <stop offset="0%" style="stop-color:#172217"/>
      <stop offset="100%" style="stop-color:#0f180f"/>
    </linearGradient>
    <linearGradient id="aiG" x1="0%" y1="0%" x2="100%" y2="100%">
      <stop offset="0%" style="stop-color:#0c1a30"/>
      <stop offset="100%" style="stop-color:#081020"/>
    </linearGradient>
    <linearGradient id="publishG" x1="0%" y1="0%" x2="100%" y2="100%">
      <stop offset="0%" style="stop-color:#172217"/>
      <stop offset="100%" style="stop-color:#0f180f"/>
    </linearGradient>
    <linearGradient id="liG" x1="0%" y1="0%" x2="100%" y2="100%">
      <stop offset="0%" style="stop-color:#101e2e"/>
      <stop offset="100%" style="stop-color:#08131e"/>
    </linearGradient>
    <marker id="arrDown" markerWidth="10" markerHeight="10" refX="5" refY="10" orient="0">
      <polygon points="0,0 10,0 5,10" fill="#3a3a5a"/>
    </marker>
    <marker id="arrDownGreen" markerWidth="10" markerHeight="10" refX="5" refY="10" orient="0">
      <polygon points="0,0 10,0 5,10" fill="#2a7a4a"/>
    </marker>
    <marker id="arrDownBlue" markerWidth="10" markerHeight="10" refX="5" refY="10" orient="0">
      <polygon points="0,0 10,0 5,10" fill="#2a5a8a"/>
    </marker>
    <marker id="arrUp" markerWidth="10" markerHeight="10" refX="5" refY="0" orient="0">
      <polygon points="0,10 10,10 5,0" fill="#7a6a1a"/>
    </marker>
  </defs>

  <!-- Background -->
  <rect width="580" height="1490" fill="url(#bgGrad)" rx="14"/>

  <!-- Subtle grid -->
  <g opacity="0.025" stroke="#ffffff" stroke-width="1">
    <line x1="145" y1="0" x2="145" y2="1580"/>
    <line x1="290" y1="0" x2="290" y2="1580"/>
    <line x1="435" y1="0" x2="435" y2="1580"/>
  </g>

  <!-- Title -->
  <text x="290" y="38" text-anchor="middle" fill="#d8d8f0" font-size="14" font-family="'Courier New', monospace" letter-spacing="6" opacity="0.8">INPOST</text>
  <text x="290" y="55" text-anchor="middle" fill="#5a5a7a" font-size="8.5" font-family="'Courier New', monospace" letter-spacing="3" opacity="0.6">NOTEBOOK SOURCE → LINKEDIN WORKFLOW</text>
  <line x1="100" y1="62" x2="480" y2="62" stroke="#2a2a4a" stroke-width="1"/>

  <!-- ═══════════════════════════════════════════════════════ -->
  <!-- SCHEDULER WRAPPER  y=70 → y=1554  height=1484         -->
  <!-- ═══════════════════════════════════════════════════════ -->
  <rect x="12" y="70" width="556" height="1410" rx="12" fill="none" stroke="#7a6a1a" stroke-width="1.5" stroke-dasharray="6,4" opacity="0.4"/>

  <!-- Cron pill top -->
  <rect x="185" y="61" width="210" height="20" rx="10" fill="#181408" stroke="#7a6a1a" stroke-width="1.5"/>
  <text x="290" y="75" text-anchor="middle" fill="#c8aa30" font-size="8.5" font-family="'Courier New', monospace" letter-spacing="2">🗓️  SCHEDULER  ·  cron</text>

  <!-- Left rail: single clean dashed line -->
  <line x1="20" y1="98" x2="20" y2="1468" stroke="#7a6a1a" stroke-width="1" stroke-dasharray="3,9" opacity="0.2"/>

  <!-- Right loop-back arrow -->
  <path d="M 564 1468 Q 572 1468 572 1450 Q 572 820 572 98 Q 572 83 564 83" stroke="#7a6a1a" stroke-width="1.5" stroke-dasharray="5,4" fill="none" opacity="0.3" marker-end="url(#arrUp)"/>

  <!-- ═══════════════════════════════════════════════════════ -->
  <!-- STEP 1 HEADER  y=86                                    -->
  <!-- ═══════════════════════════════════════════════════════ -->
  <rect x="28" y="86" width="524" height="24" rx="5" fill="#18182a" opacity="0.7"/>
  <rect x="36" y="91" width="16" height="14" rx="3" fill="#22224a" stroke="#3a3a6a" stroke-width="1"/>
  <text x="44" y="102" text-anchor="middle" fill="#7a7aaa" font-size="8" font-family="'Courier New', monospace" font-weight="bold">1</text>
  <text x="60" y="102" fill="#b8b8e0" font-size="10" font-family="'Courier New', monospace" letter-spacing="2" font-weight="bold">  NOTE SOURCE</text>
  <text x="480" y="102" text-anchor="end" fill="#3a3a5a" font-size="7" font-family="'Courier New', monospace">choose one · --[provider]-title</text>

  <!-- ═══════════════════════════════════════════════════════ -->
  <!-- PROVIDER CARDS 2x2                                     -->
  <!-- Top row: y=118  height=210  bottom=328                 -->
  <!-- Bottom row: y=334  height=210  bottom=544              -->
  <!-- ═══════════════════════════════════════════════════════ -->

  <!-- NOTION top-left: x=28 y=118 w=252 h=210 -->
  <rect x="28" y="118" width="252" height="210" rx="8" fill="url(#notionG)" stroke="#3a3a6a" stroke-width="1"/>
  <rect x="28" y="118" width="252" height="3" rx="2" fill="#c8c8e8" opacity="0.2"/>
  <text x="154" y="143" text-anchor="middle" font-size="20">📄</text>
  <text x="154" y="161" text-anchor="middle" fill="#c0c0e0" font-size="10" font-family="'Courier New', monospace" letter-spacing="2" font-weight="bold">NOTION</text>
  <line x1="34" y1="168" x2="274" y2="168" stroke="#2a2a4a" stroke-width="1" opacity="0.5"/>
  <rect x="36" y="175" width="236" height="56" rx="4" fill="#14142a" stroke="#2e2e52" stroke-width="1"/>
  <text x="154" y="189" text-anchor="middle" fill="#7070aa" font-size="7" font-family="'Courier New', monospace" letter-spacing="1">DATABASE</text>
  <line x1="41" y1="193" x2="266" y2="193" stroke="#20204a" stroke-width="1"/>
  <rect x="41" y="199" width="100" height="3" rx="1" fill="#2a2a4a"/>
  <rect x="41" y="206" width="78" height="3" rx="1" fill="#222244"/>
  <rect x="41" y="213" width="88" height="3" rx="1" fill="#222244"/>
  <rect x="175" y="199" width="90" height="16" rx="8" fill="#0f2a0f" stroke="#2a5a2a" stroke-width="1"/>
  <text x="220" y="211" text-anchor="middle" fill="#5aaa5a" font-size="6.5" font-family="'Courier New', monospace">● READY</text>
  <rect x="36" y="238" width="236" height="36" rx="4" fill="#0e0e20" stroke="#20203a" stroke-width="1"/>
  <text x="44" y="251" fill="#4a4a7a" font-size="7" font-family="'Courier New', monospace">NOTION_API_TOKEN</text>
  <text x="44" y="266" fill="#4a4a7a" font-size="7" font-family="'Courier New', monospace">NOTION_DATABASE_ID</text>
  <line x1="34" y1="282" x2="274" y2="282" stroke="#2a2a4a" stroke-width="1" opacity="0.3"/>
  <text x="154" y="296" text-anchor="middle" fill="#5a5a8a" font-size="7" font-family="'Courier New', monospace">--notion-title "..."  ·  --notion-id</text>
  <text x="154" y="310" text-anchor="middle" fill="#3a3a5a" font-size="6.5" font-family="'Courier New', monospace">default provider · no extra auth</text>

  <!-- OBSIDIAN top-right: x=300 y=118 w=252 h=210 -->
  <rect x="300" y="118" width="252" height="210" rx="8" fill="url(#obsidianG)" stroke="#5a3a9a" stroke-width="1"/>
  <rect x="300" y="118" width="252" height="3" rx="2" fill="#9a7aff" opacity="0.25"/>
  <text x="426" y="143" text-anchor="middle" font-size="20">🔮</text>
  <text x="426" y="161" text-anchor="middle" fill="#aa98e0" font-size="10" font-family="'Courier New', monospace" letter-spacing="2" font-weight="bold">OBSIDIAN</text>
  <line x1="306" y1="168" x2="546" y2="168" stroke="#3a2a6a" stroke-width="1" opacity="0.5"/>
  <rect x="308" y="175" width="236" height="56" rx="4" fill="#110c22" stroke="#3a2a5a" stroke-width="1"/>
  <text x="426" y="189" text-anchor="middle" fill="#6a5a9a" font-size="7" font-family="'Courier New', monospace" letter-spacing="1">LOCAL VAULT</text>
  <line x1="313" y1="193" x2="538" y2="193" stroke="#201840" stroke-width="1"/>
  <text x="318" y="205" fill="#584a88" font-size="7" font-family="'Courier New', monospace">📁 MyVault/</text>
  <text x="326" y="217" fill="#4a3a78" font-size="7" font-family="'Courier New', monospace">📂 Blog Posts/</text>
  <text x="334" y="229" fill="#3a2a68" font-size="6.5" font-family="'Courier New', monospace">📝 note.md</text>
  <rect x="308" y="238" width="236" height="36" rx="4" fill="#0c0a1a" stroke="#201838" stroke-width="1"/>
  <text x="316" y="251" fill="#4a3a78" font-size="7" font-family="'Courier New', monospace">OBSIDIAN_VAULT_PATH</text>
  <text x="316" y="266" fill="#4a3a78" font-size="7" font-family="'Courier New', monospace">OBSIDIAN_NOTES_DIR  (optional)</text>
  <line x1="306" y1="282" x2="546" y2="282" stroke="#3a2a6a" stroke-width="1" opacity="0.3"/>
  <text x="426" y="296" text-anchor="middle" fill="#6a5a9a" font-size="7" font-family="'Courier New', monospace">--obsidian-title "..."  ·  --obsidian-id</text>
  <text x="426" y="310" text-anchor="middle" fill="#3a2a6a" font-size="6.5" font-family="'Courier New', monospace">filesystem · no API key needed</text>

  <!-- ONENOTE bottom-left: x=28 y=334 w=252 h=218 -->
  <rect x="28" y="334" width="252" height="218" rx="8" fill="url(#onenoteG)" stroke="#8a2060" stroke-width="1"/>
  <rect x="28" y="334" width="252" height="3" rx="2" fill="#ff60cc" opacity="0.3"/>
  <text x="154" y="359" text-anchor="middle" font-size="20">📓</text>
  <text x="154" y="377" text-anchor="middle" fill="#ff80cc" font-size="10" font-family="'Courier New', monospace" letter-spacing="2" font-weight="bold">ONENOTE</text>
  <line x1="34" y1="384" x2="274" y2="384" stroke="#6a1848" stroke-width="1" opacity="0.5"/>
  <rect x="36" y="391" width="236" height="62" rx="4" fill="#1e0818" stroke="#6a1848" stroke-width="1"/>
  <text x="154" y="405" text-anchor="middle" fill="#cc50a0" font-size="7" font-family="'Courier New', monospace" letter-spacing="1">AZURE AD APP</text>
  <line x1="41" y1="409" x2="266" y2="409" stroke="#3a1028" stroke-width="1"/>
  <text x="44" y="422" fill="#aa4090" font-size="7" font-family="'Courier New', monospace">App registration (portal.azure.com)</text>
  <text x="44" y="435" fill="#8a3070" font-size="7" font-family="'Courier New', monospace">Notes.ReadWrite.All (delegated)</text>
  <text x="44" y="447" fill="#6a2050" font-size="6.5" font-family="'Courier New', monospace">OAuth2 · tokens cached in ~/.inpost/</text>
  <rect x="36" y="460" width="236" height="48" rx="4" fill="#160610" stroke="#4a1038" stroke-width="1"/>
  <text x="44" y="473" fill="#aa4080" font-size="7" font-family="'Courier New', monospace">ONENOTE_CLIENT_ID</text>
  <text x="44" y="485" fill="#aa4080" font-size="7" font-family="'Courier New', monospace">ONENOTE_CLIENT_SECRET</text>
  <text x="44" y="497" fill="#7a2060" font-size="6.5" font-family="'Courier New', monospace">ONENOTE_TENANT_ID</text>
  <line x1="34" y1="516" x2="274" y2="516" stroke="#6a1848" stroke-width="1" opacity="0.3"/>
  <text x="154" y="530" text-anchor="middle" fill="#cc5090" font-size="7" font-family="'Courier New', monospace">--onenote-title "..."  ·  --onenote-id</text>
  <text x="154" y="544" text-anchor="middle" fill="#7a2060" font-size="6.5" font-family="'Courier New', monospace">inpost auth --onenote  (one-time)</text>

  <!-- EVERNOTE bottom-right: x=300 y=334 w=252 h=218 -->
  <rect x="300" y="334" width="252" height="218" rx="8" fill="url(#evernoteG)" stroke="#1a7a30" stroke-width="1"/>
  <rect x="300" y="334" width="252" height="3" rx="2" fill="#30ee60" opacity="0.3"/>
  <text x="426" y="359" text-anchor="middle" font-size="20">🐘</text>
  <text x="426" y="377" text-anchor="middle" fill="#30ee60" font-size="10" font-family="'Courier New', monospace" letter-spacing="2" font-weight="bold">EVERNOTE</text>
  <line x1="306" y1="384" x2="546" y2="384" stroke="#1a6a28" stroke-width="1" opacity="0.5"/>
  <rect x="308" y="391" width="236" height="62" rx="4" fill="#071a0c" stroke="#1a6a28" stroke-width="1"/>
  <text x="426" y="405" text-anchor="middle" fill="#28ee58" font-size="7" font-family="'Courier New', monospace" letter-spacing="1">DEVELOPER TOKEN</text>
  <line x1="313" y1="409" x2="538" y2="409" stroke="#0f3a18" stroke-width="1"/>
  <text x="316" y="422" fill="#18cc48" font-size="7" font-family="'Courier New', monospace">Personal access token (no OAuth)</text>
  <text x="316" y="435" fill="#12a838" font-size="7" font-family="'Courier New', monospace">Thrift SDK  ·  npm install evernote</text>
  <text x="316" y="447" fill="#0e7a28" font-size="6.5" font-family="'Courier New', monospace">evernote.com/api/DeveloperToken</text>
  <rect x="308" y="460" width="236" height="48" rx="4" fill="#050e08" stroke="#0f4a18" stroke-width="1"/>
  <text x="316" y="473" fill="#18cc48" font-size="7" font-family="'Courier New', monospace">EVERNOTE_TOKEN</text>
  <text x="316" y="485" fill="#18cc48" font-size="7" font-family="'Courier New', monospace">EVERNOTE_NOTEBOOK  (optional)</text>
  <text x="316" y="497" fill="#0e8a30" font-size="6.5" font-family="'Courier New', monospace">EVERNOTE_SANDBOX</text>
  <line x1="306" y1="516" x2="546" y2="516" stroke="#1a6a28" stroke-width="1" opacity="0.3"/>
  <text x="426" y="530" text-anchor="middle" fill="#28ee58" font-size="7" font-family="'Courier New', monospace">--evernote-title "..."  ·  --evernote-id</text>
  <text x="426" y="544" text-anchor="middle" fill="#12a838" font-size="6.5" font-family="'Courier New', monospace">GUID visible in Evernote desktop</text>

  <!-- Converging arrows: 4 cards → single arrow down -->
  <!-- 4 vertical drops from card bottoms -->
  <line x1="154" y1="552" x2="154" y2="568" stroke="#3a3a5a" stroke-width="1" stroke-dasharray="3,3" opacity="0.5"/>
  <line x1="426" y1="552" x2="426" y2="568" stroke="#5a3a9a" stroke-width="1" stroke-dasharray="3,3" opacity="0.4"/>
  <!-- Horizontal bar connecting them -->
  <line x1="154" y1="568" x2="426" y2="568" stroke="#2a2a4a" stroke-width="1.5" stroke-dasharray="3,3" opacity="0.45"/>
  <!-- Single drop to transform -->
  <line x1="290" y1="568" x2="290" y2="590" stroke="#3a3a5a" stroke-width="1.5" stroke-dasharray="4,3" marker-end="url(#arrDown)"/>
  <text x="302" y="583" fill="#3a3a5a" font-size="7" font-family="'Courier New', monospace">fetch content</text>

  <!-- ═══════════════════════════════════════════════════════ -->
  <!-- STEP 2: TRANSFORM  y=598  content ends ~828  h=234    -->
  <!-- ═══════════════════════════════════════════════════════ -->
  <rect x="28" y="598" width="524" height="202" rx="8" fill="url(#transformG)" stroke="#2a5a2a" stroke-width="1"/>
  <rect x="28" y="598" width="4" height="202" rx="2" fill="#5aaa5a" opacity="0.5"/>

  <!-- Header bar -->
  <rect x="32" y="598" width="520" height="34" rx="6" fill="#101e10" opacity="0.8"/>
  <rect x="40" y="605" width="16" height="16" rx="3" fill="#142414" stroke="#2a5a2a" stroke-width="1"/>
  <text x="48" y="617" text-anchor="middle" fill="#3a7a3a" font-size="8" font-family="'Courier New', monospace" font-weight="bold">2</text>
  <rect x="62" y="605" width="20" height="16" rx="3" fill="#101e10" stroke="#2a5a2a" stroke-width="1"/>
  <text x="72" y="617" text-anchor="middle" font-size="11">⚙️</text>
  <text x="90" y="617" fill="#5aaa5a" font-size="11" font-family="'Courier New', monospace" letter-spacing="2" font-weight="bold">TRANSFORM</text>
  <circle cx="488" cy="616" r="4" fill="#ff5f57" opacity="0.8"/>
  <circle cx="502" cy="616" r="4" fill="#ffbd2e" opacity="0.8"/>
  <circle cx="516" cy="616" r="4" fill="#28c840" opacity="0.8"/>
  <line x1="33" y1="634" x2="547" y2="634" stroke="#2a5a2a" stroke-width="1" opacity="0.3"/>

  <!-- CLI -->
  <text x="40" y="650" fill="#3aaa3a" font-size="8" font-family="'Courier New', monospace">$ inpost transform --notion-title "..." -i --save</text>
  <text x="40" y="662" fill="#3aaa3a" font-size="7" font-family="'Courier New', monospace" opacity="0.35">  --obsidian-title  |  --onenote-title  |  --evernote-title</text>

  <!-- Interactive menu box: x=36 y=670 w=248 h=100 → bottom=770 -->
  <rect x="36" y="670" width="248" height="100" rx="4" fill="#09120a" stroke="#1e4a1e" stroke-width="1"/>
  <text x="160" y="683" text-anchor="middle" fill="#3a8a3a" font-size="7.5" font-family="'Courier New', monospace">✨ Generating post...</text>
  <line x1="41" y1="688" x2="279" y2="688" stroke="#162a16" stroke-width="1"/>
  <text x="50" y="701" fill="#5aaa5a" font-size="7.5" font-family="'Courier New', monospace">❯ ✓  Accept and continue</text>
  <text x="50" y="714" fill="#2a6a2a" font-size="7.5" font-family="'Courier New', monospace">  ✏️  Refine with feedback</text>
  <text x="50" y="727" fill="#2a6a2a" font-size="7.5" font-family="'Courier New', monospace">  📝  Edit directly</text>
  <text x="50" y="740" fill="#2a6a2a" font-size="7.5" font-family="'Courier New', monospace">  🔄  Regenerate from scratch</text>
  <text x="50" y="753" fill="#2a6a2a" font-size="7.5" font-family="'Courier New', monospace">  ✗   Cancel</text>

  <!-- Save write-back box: x=294 y=670 w=250 h=100 → bottom=770 -->
  <rect x="294" y="670" width="250" height="100" rx="4" fill="#071208" stroke="#164a16" stroke-width="1"/>
  <text x="419" y="683" text-anchor="middle" fill="#2a7a2a" font-size="7.5" font-family="'Courier New', monospace" letter-spacing="1">--save WRITES BACK</text>
  <line x1="299" y1="688" x2="539" y2="688" stroke="#122a12" stroke-width="1"/>
  <text x="304" y="701" fill="#2a7a2a" font-size="7.5" font-family="'Courier New', monospace">📄 Notion → AI Summary field</text>
  <text x="304" y="714" fill="#226622" font-size="7.5" font-family="'Courier New', monospace">🔮 Obsidian → frontmatter ai_summary</text>
  <text x="304" y="727" fill="#226622" font-size="7.5" font-family="'Courier New', monospace">📓 OneNote → appended page section</text>
  <text x="304" y="740" fill="#226622" font-size="7.5" font-family="'Courier New', monospace">🐘 Evernote → appended note section</text>

  <!-- Footer note tight to box bottoms -->
  <text x="40" y="782" fill="#2a5a2a" font-size="7.5" font-family="'Courier New', monospace">Refine until happy. --save writes back to whichever source you used.</text>

  <!-- Arrow 2→3: from y=832 to y=856 -->
  <line x1="290" y1="808" x2="290" y2="830" stroke="#2a4a7a" stroke-width="1.5" stroke-dasharray="4,3" marker-end="url(#arrDownBlue)"/>
  <text x="302" y="823" fill="#2a4a7a" font-size="7" font-family="'Courier New', monospace">AI call</text>

  <!-- ═══════════════════════════════════════════════════════ -->
  <!-- STEP 3: AI ENGINE  y=862  content ends ~1008  h=150   -->
  <!-- ═══════════════════════════════════════════════════════ -->
  <rect x="28" y="838" width="524" height="150" rx="8" fill="url(#aiG)" stroke="#1a3a6a" stroke-width="1"/>
  <rect x="28" y="838" width="4" height="150" rx="2" fill="#4a8aee" opacity="0.5"/>

  <!-- Header -->
  <rect x="32" y="838" width="520" height="34" rx="6" fill="#080e1c" opacity="0.9"/>
  <rect x="40" y="845" width="16" height="16" rx="3" fill="#0a1428" stroke="#1a3a6a" stroke-width="1"/>
  <text x="48" y="857" text-anchor="middle" fill="#3a6aaa" font-size="8" font-family="'Courier New', monospace" font-weight="bold">3</text>
  <rect x="62" y="845" width="20" height="16" rx="3" fill="#080e1c" stroke="#1a3a6a" stroke-width="1"/>
  <text x="72" y="857" text-anchor="middle" font-size="11">🤖</text>
  <text x="90" y="857" fill="#5a9aee" font-size="11" font-family="'Courier New', monospace" letter-spacing="2" font-weight="bold">AI ENGINE</text>
  <!-- Provider pills -->
  <rect x="340" y="845" width="52" height="16" rx="8" fill="#1e3010" stroke="#6aaa22" stroke-width="1.5"/>
  <text x="366" y="857" text-anchor="middle" fill="#aaee44" font-size="7" font-family="'Courier New', monospace" font-weight="bold">Groq ★</text>
  <rect x="398" y="845" width="52" height="16" rx="8" fill="#0e1020" stroke="#2a2a4a" stroke-width="1"/>
  <text x="424" y="857" text-anchor="middle" fill="#4a4a6a" font-size="7" font-family="'Courier New', monospace">Gemini</text>
  <rect x="456" y="845" width="52" height="16" rx="8" fill="#0e1020" stroke="#2a2a4a" stroke-width="1"/>
  <text x="482" y="857" text-anchor="middle" fill="#4a4a6a" font-size="7" font-family="'Courier New', monospace">Claude</text>
  <line x1="33" y1="898" x2="547" y2="898" stroke="#1a3a6a" stroke-width="1" opacity="0.3"/>

  <!-- Two side-by-side panels: x=36 y=906 h=92  and  x=296 y=906 h=92 → bottom=998 -->
  <rect x="36" y="882" width="248" height="92" rx="4" fill="#060c18" stroke="#122a4a" stroke-width="1"/>
  <text x="160" y="895" text-anchor="middle" fill="#3a6aaa" font-size="7.5" font-family="'Courier New', monospace" letter-spacing="1">GENERATES</text>
  <line x1="41" y1="924" x2="279" y2="924" stroke="#0e2038" stroke-width="1"/>
  <text x="50" y="913" fill="#5a8ace" font-size="7.5" font-family="'Courier New', monospace">📝  LinkedIn summary</text>
  <text x="50" y="926" fill="#3a6aaa" font-size="7.5" font-family="'Courier New', monospace">#️⃣  Hashtags  ·  🎯 Tone</text>
  <text x="50" y="939" fill="#3a6aaa" font-size="7.5" font-family="'Courier New', monospace">🪝  Hooks  ·  🔗 Blog link</text>
  <text x="160" y="964" text-anchor="middle" fill="#2a5a8a" font-size="7" font-family="'Courier New', monospace">Auto: <tspan font-weight="bold" fill="#aaee44">Groq ★</tspan><tspan fill="#2a3a5a"> → Gemini → Claude</tspan></text>

  <rect x="294" y="882" width="250" height="92" rx="4" fill="#060c18" stroke="#122a4a" stroke-width="1"/>
  <text x="419" y="895" text-anchor="middle" fill="#3a6aaa" font-size="7.5" font-family="'Courier New', monospace" letter-spacing="1">TONE OPTIONS</text>
  <line x1="299" y1="924" x2="539" y2="924" stroke="#0e2038" stroke-width="1"/>
  <text x="304" y="913" fill="#3a6aaa" font-size="7.5" font-family="'Courier New', monospace">professional  ·  casual</text>
  <text x="304" y="926" fill="#3a6aaa" font-size="7.5" font-family="'Courier New', monospace">authority  ·  storytelling</text>
  <text x="304" y="939" fill="#3a6aaa" font-size="7.5" font-family="'Courier New', monospace">educational</text>
  <text x="304" y="960" fill="#1a3a5a" font-size="7" font-family="'Courier New', monospace">--tone flag  ·  DEFAULT_TONE in .env</text>

  <!-- Arrow 3→4 -->
  <line x1="290" y1="988" x2="290" y2="1010" stroke="#2a5a2a" stroke-width="1.5" stroke-dasharray="4,3" marker-end="url(#arrDownGreen)"/>
  <text x="302" y="1003" fill="#2a5a2a" font-size="7" font-family="'Courier New', monospace">publish</text>

  <!-- ═══════════════════════════════════════════════════════ -->
  <!-- STEP 4: PUBLISH  y=1018  h=136  bottom=1154            -->
  <!-- ═══════════════════════════════════════════════════════ -->
  <rect x="28" y="1018" width="524" height="136" rx="8" fill="url(#publishG)" stroke="#2a5a2a" stroke-width="1"/>
  <rect x="28" y="1018" width="4" height="136" rx="2" fill="#5aaa5a" opacity="0.5"/>

  <!-- Header -->
  <rect x="32" y="1018" width="520" height="34" rx="6" fill="#101e10" opacity="0.8"/>
  <rect x="40" y="1025" width="16" height="16" rx="3" fill="#142414" stroke="#2a5a2a" stroke-width="1"/>
  <text x="48" y="1037" text-anchor="middle" fill="#3a7a3a" font-size="8" font-family="'Courier New', monospace" font-weight="bold">4</text>
  <rect x="62" y="1025" width="20" height="16" rx="3" fill="#101e10" stroke="#2a5a2a" stroke-width="1"/>
  <text x="72" y="1037" text-anchor="middle" font-size="11">🚀</text>
  <text x="90" y="1037" fill="#5aaa5a" font-size="11" font-family="'Courier New', monospace" letter-spacing="2" font-weight="bold">PUBLISH</text>
  <circle cx="488" cy="1036" r="4" fill="#ff5f57" opacity="0.8"/>
  <circle cx="502" cy="1036" r="4" fill="#ffbd2e" opacity="0.8"/>
  <circle cx="516" cy="1036" r="4" fill="#28c840" opacity="0.8"/>
  <line x1="33" y1="1054" x2="547" y2="1054" stroke="#2a5a2a" stroke-width="1" opacity="0.3"/>

  <!-- CLI -->
  <text x="40" y="1068" fill="#3aaa3a" font-size="8" font-family="'Courier New', monospace">$ inpost publish --notion-title "..." --dry-run</text>
  <text x="40" y="1080" fill="#3aaa3a" font-size="7" font-family="'Courier New', monospace" opacity="0.35">  --obsidian-title  |  --onenote-title  |  --evernote-title</text>

  <!-- Preview box: y=1086 h=56 bottom=1142 -->
  <rect x="36" y="1086" width="508" height="56" rx="4" fill="#09120a" stroke="#1e4a1e" stroke-width="1"/>
  <text x="290" y="1100" text-anchor="middle" fill="#3a8a3a" font-size="7.5" font-family="'Courier New', monospace">Post preview (--dry-run)</text>
  <line x1="41" y1="1106" x2="539" y2="1106" stroke="#162a16" stroke-width="1"/>
  <text x="46" y="1120" fill="#2a6a2a" font-size="7.5" font-family="'Courier New', monospace">AI summary  ·  hashtags  ·  link to source note  ·  visibility setting</text>
  <text x="46" y="1134" fill="#1a4a1a" font-size="7" font-family="'Courier New', monospace">Confirm before going live  ·  drop --dry-run to post  ·  --connections for private</text>

  <!-- Arrow 4→5 -->
  <line x1="290" y1="1154" x2="290" y2="1176" stroke="#2a5a8a" stroke-width="1.5" stroke-dasharray="4,3" marker-end="url(#arrDownBlue)"/>
  <text x="302" y="1169" fill="#2a5a8a" font-size="7" font-family="'Courier New', monospace">post live</text>

  <!-- ═══════════════════════════════════════════════════════ -->
  <!-- STEP 5: LINKEDIN  y=1184  h=178  bottom=1362           -->
  <!-- ═══════════════════════════════════════════════════════ -->
  <rect x="28" y="1184" width="524" height="178" rx="8" fill="url(#liG)" stroke="#1a4a7a" stroke-width="1"/>
  <rect x="28" y="1184" width="4" height="178" rx="2" fill="#0a66c2" opacity="0.6"/>

  <!-- Header -->
  <rect x="32" y="1184" width="520" height="34" rx="6" fill="#081220" opacity="0.9"/>
  <rect x="40" y="1191" width="16" height="16" rx="3" fill="#0a1828" stroke="#1a4a7a" stroke-width="1"/>
  <text x="48" y="1203" text-anchor="middle" fill="#2a6aaa" font-size="8" font-family="'Courier New', monospace" font-weight="bold">5</text>
  <rect x="62" y="1191" width="20" height="16" rx="3" fill="#081220" stroke="#1a4a7a" stroke-width="1"/>
  <text x="72" y="1203" text-anchor="middle" font-size="11">💼</text>
  <text x="90" y="1203" fill="#3a8aee" font-size="11" font-family="'Courier New', monospace" letter-spacing="2" font-weight="bold">LINKEDIN</text>
  <rect x="448" y="1191" width="64" height="16" rx="8" fill="#081a28" stroke="#0a66c2" stroke-width="1"/>
  <text x="480" y="1203" text-anchor="middle" fill="#3a8aee" font-size="7" font-family="'Courier New', monospace">● LIVE</text>
  <line x1="33" y1="1220" x2="547" y2="1220" stroke="#1a4a7a" stroke-width="1" opacity="0.3"/>

  <!-- Post card mockup: x=36 y=1228 w=240 h=124 bottom=1352 -->
  <rect x="36" y="1228" width="240" height="124" rx="5" fill="#0c1824" stroke="#162e46" stroke-width="1"/>
  <circle cx="54" cy="1245" r="8" fill="#1a3a5a"/>
  <text x="54" y="1249" text-anchor="middle" fill="#3a7aaa" font-size="7.5">👤</text>
  <rect x="68" y="1240" width="80" height="4" rx="2" fill="#162e46"/>
  <rect x="68" y="1248" width="55" height="3" rx="1" fill="#102030"/>
  <line x1="41" y1="1259" x2="271" y2="1259" stroke="#162e46" stroke-width="1"/>
  <rect x="41" y="1265" width="225" height="3" rx="1" fill="#162e46"/>
  <rect x="41" y="1272" width="200" height="3" rx="1" fill="#102030"/>
  <rect x="41" y="1279" width="210" height="3" rx="1" fill="#102030"/>
  <rect x="41" y="1286" width="185" height="3" rx="1" fill="#102030"/>
  <text x="41" y="1302" fill="#0a66c2" font-size="7" font-family="'Courier New', monospace">#dfir #automation #devtools</text>
  <rect x="41" y="1308" width="225" height="20" rx="4" fill="#081a2e" stroke="#0a4a8a" stroke-width="1"/>
  <text x="153" y="1322" text-anchor="middle" fill="#3a8aee" font-size="7" font-family="'Courier New', monospace">🔗  Read the full post →</text>
  <text x="41" y="1344" fill="#1a3a5a" font-size="6.5" font-family="'Courier New', monospace">visible on feed and profile</text>

  <!-- Sync-back panel: x=286 y=1228 w=258 h=124 bottom=1352 -->
  <rect x="286" y="1228" width="258" height="124" rx="5" fill="#081420" stroke="#122438" stroke-width="1"/>
  <text x="415" y="1244" text-anchor="middle" fill="#2a6a9a" font-size="7.5" font-family="'Courier New', monospace" letter-spacing="1">URL SAVED BACK TO SOURCE</text>
  <line x1="291" y1="1250" x2="539" y2="1250" stroke="#102030" stroke-width="1"/>
  <text x="296" y="1267" fill="#2a6a8a" font-size="7.5" font-family="'Courier New', monospace">📄 Notion → LinkedIn URL field</text>
  <text x="296" y="1282" fill="#1a5a7a" font-size="7.5" font-family="'Courier New', monospace">🔮 Obsidian → linkedin_url FM</text>
  <text x="296" y="1297" fill="#1a5a7a" font-size="7.5" font-family="'Courier New', monospace">📓 OneNote → page link appended</text>
  <text x="296" y="1312" fill="#1a5a7a" font-size="7.5" font-family="'Courier New', monospace">🐘 Evernote → sourceURL attr</text>
  <text x="296" y="1336" fill="#12405a" font-size="7" font-family="'Courier New', monospace">Status → Published · Date recorded</text>

  <!-- ═══════════════════════════════════════════════════════ -->
  <!-- SCHEDULER BOTTOM LABELS  y=1382                        -->
  <!-- ═══════════════════════════════════════════════════════ -->
  <rect x="155" y="1382" width="270" height="22" rx="11" fill="#181408" stroke="#6a5a14" stroke-width="1"/>
  <text x="290" y="1397" text-anchor="middle" fill="#7a6a1a" font-size="8.5" font-family="'Courier New', monospace" opacity="0.8">↺  repeats per defined schedule</text>
  <rect x="105" y="1410" width="370" height="36" rx="6" fill="#111108" stroke="#3a3a12" stroke-width="1"/>
  <text x="290" y="1426" text-anchor="middle" fill="#6a6a22" font-size="7.5" font-family="'Courier New', monospace">🍎 launchd  ·  ⚙️ GitHub Actions  ·  🖥️ pm2</text>
  <text x="290" y="1440" text-anchor="middle" fill="#4a4a18" font-size="7" font-family="'Courier New', monospace">choose your deployment method</text>

  <!-- Footer -->
  <line x1="160" y1="1460" x2="420" y2="1460" stroke="#2a2a3a" stroke-width="1" opacity="0.4"/>
  <text x="290" y="1472" text-anchor="middle" fill="#2a2a3a" font-size="7.5" font-family="'Courier New', monospace" letter-spacing="2">github.com/cmdaltr/inpost</text>

</svg>
