<svg xmlns="http://www.w3.org/2000/svg" viewBox="0 0 300 258" width="300" height="258">
  <defs>
    <linearGradient id="bgGrad" x1="0%" y1="0%" x2="30%" y2="100%">
      <stop offset="0%" style="stop-color:#0c0c14"/>
      <stop offset="100%" style="stop-color:#14142a"/>
    </linearGradient>
    <linearGradient id="notionG" x1="0%" y1="0%" x2="0%" y2="100%">
      <stop offset="0%" style="stop-color:#22223a"/>
      <stop offset="100%" style="stop-color:#16162a"/>
    </linearGradient>
    <linearGradient id="obsidianG" x1="0%" y1="0%" x2="0%" y2="100%">
      <stop offset="0%" style="stop-color:#1e1838"/>
      <stop offset="100%" style="stop-color:#130e28"/>
    </linearGradient>
    <linearGradient id="onenoteG" x1="0%" y1="0%" x2="0%" y2="100%">
      <stop offset="0%" style="stop-color:#38102e"/>
      <stop offset="100%" style="stop-color:#26081e"/>
    </linearGradient>
    <linearGradient id="evernoteG" x1="0%" y1="0%" x2="0%" y2="100%">
      <stop offset="0%" style="stop-color:#0d3018"/>
      <stop offset="100%" style="stop-color:#071e0e"/>
    </linearGradient>
  </defs>
  <rect width="300" height="258" fill="url(#bgGrad)" rx="12"/>
  <g opacity="0.025" stroke="#ffffff" stroke-width="1">
    <line x1="0" y1="129" x2="300" y2="129"/>
    <line x1="150" y1="0" x2="150" y2="258"/>
  </g>

  <rect x="20" y="20" width="260" height="218" rx="10" fill="url(#notionG)" stroke="#3a3a6a" stroke-width="1.5"/>
  <rect x="20" y="20" width="260" height="4" rx="2" fill="#c8c8e8" opacity="0.25"/>
  <text x="150" y="50" text-anchor="middle" font-size="28">📄</text>
  <text x="150" y="74" text-anchor="middle" fill="#c0c0e0" font-size="13" font-family="'Courier New', monospace" letter-spacing="3" font-weight="bold">NOTION</text>
  <line x1="26" y1="82" x2="274" y2="82" stroke="#2a2a4a" stroke-width="1" opacity="0.5"/>

  <rect x="28" y="90" width="244" height="62" rx="4" fill="#14142a" stroke="#2e2e52" stroke-width="1"/>
  <text x="150" y="105" text-anchor="middle" fill="#7070aa" font-size="8" font-family="'Courier New', monospace" letter-spacing="2">DATABASE</text>
  <line x1="33" y1="110" x2="259" y2="110" stroke="#20204a" stroke-width="1"/>
  <rect x="33" y="116" width="100" height="3" rx="1" fill="#2a2a4a"/>
  <rect x="33" y="124" width="78" height="3" rx="1" fill="#222244"/>
  <rect x="33" y="132" width="88" height="3" rx="1" fill="#222244"/>
  <rect x="165" y="114" width="90" height="18" rx="9" fill="#0f2a0f" stroke="#2a5a2a" stroke-width="1"/>
  <text x="210" y="127" text-anchor="middle" fill="#5aaa5a" font-size="7.5" font-family="'Courier New', monospace">● READY</text>

  <rect x="28" y="160" width="244" height="42" rx="4" fill="#0e0e20" stroke="#20203a" stroke-width="1"/>
  <text x="36" y="175" fill="#4a4a7a" font-size="8" font-family="'Courier New', monospace">NOTION_API_TOKEN</text>
  <text x="36" y="192" fill="#4a4a7a" font-size="8" font-family="'Courier New', monospace">NOTION_DATABASE_ID</text>

  <line x1="26" y1="210" x2="274" y2="210" stroke="#2a2a4a" stroke-width="1" opacity="0.3"/>
  <text x="150" y="225" text-anchor="middle" fill="#5a5a8a" font-size="8" font-family="'Courier New', monospace">--notion-title "..."  ·  --notion-id</text>
  <text x="150" y="238" text-anchor="middle" fill="#3a3a5a" font-size="7.5" font-family="'Courier New', monospace">default provider · no extra auth</text>

</svg>