<svg xmlns="http://www.w3.org/2000/svg" viewBox="0 0 300 274" width="300" height="274">
  <defs>
    <linearGradient id="bgGrad" x1="0%" y1="0%" x2="30%" y2="100%">
      <stop offset="0%" style="stop-color:#0c0c14"/>
      <stop offset="100%" style="stop-color:#14142a"/>
    </linearGradient>
    <linearGradient id="notionG" x1="0%" y1="0%" x2="0%" y2="100%">
      <stop offset="0%" style="stop-color:#22223a"/>
      <stop offset="100%" style="stop-color:#16162a"/>
    </linearGradient>
    <linearGradient id="obsidianG" x1="0%" y1="0%" x2="0%" y2="100%">
      <stop offset="0%" style="stop-color:#1e1838"/>
      <stop offset="100%" style="stop-color:#130e28"/>
    </linearGradient>
    <linearGradient id="onenoteG" x1="0%" y1="0%" x2="0%" y2="100%">
      <stop offset="0%" style="stop-color:#38102e"/>
      <stop offset="100%" style="stop-color:#26081e"/>
    </linearGradient>
    <linearGradient id="evernoteG" x1="0%" y1="0%" x2="0%" y2="100%">
      <stop offset="0%" style="stop-color:#0d3018"/>
      <stop offset="100%" style="stop-color:#071e0e"/>
    </linearGradient>
  </defs>
  <rect width="300" height="274" fill="url(#bgGrad)" rx="12"/>
  <g opacity="0.025" stroke="#ffffff" stroke-width="1">
    <line x1="0" y1="137" x2="300" y2="137"/>
    <line x1="150" y1="0" x2="150" y2="274"/>
  </g>

  <rect x="20" y="20" width="260" height="234" rx="10" fill="url(#onenoteG)" stroke="#8a2060" stroke-width="1.5"/>
  <rect x="20" y="20" width="260" height="4" rx="2" fill="#ff60cc" opacity="0.35"/>
  <text x="150" y="50" text-anchor="middle" font-size="28">📓</text>
  <text x="150" y="74" text-anchor="middle" fill="#ff80cc" font-size="13" font-family="'Courier New', monospace" letter-spacing="3" font-weight="bold">ONENOTE</text>
  <line x1="26" y1="82" x2="274" y2="82" stroke="#6a1848" stroke-width="1" opacity="0.5"/>

  <rect x="28" y="90" width="244" height="72" rx="4" fill="#1e0818" stroke="#6a1848" stroke-width="1"/>
  <text x="150" y="105" text-anchor="middle" fill="#cc50a0" font-size="8" font-family="'Courier New', monospace" letter-spacing="2">AZURE AD APP</text>
  <line x1="33" y1="110" x2="259" y2="110" stroke="#3a1028" stroke-width="1"/>
  <text x="36" y="123" fill="#aa4090" font-size="8" font-family="'Courier New', monospace">App registration (portal.azure.com)</text>
  <text x="36" y="136" fill="#8a3070" font-size="8" font-family="'Courier New', monospace">Notes.ReadWrite.All (delegated)</text>
  <text x="36" y="149" fill="#6a2050" font-size="7.5" font-family="'Courier New', monospace">OAuth2 · tokens cached in ~/.inpost/</text>

  <rect x="28" y="170" width="244" height="52" rx="4" fill="#160610" stroke="#4a1038" stroke-width="1"/>
  <text x="36" y="185" fill="#aa4080" font-size="8" font-family="'Courier New', monospace">ONENOTE_CLIENT_ID</text>
  <text x="36" y="198" fill="#aa4080" font-size="8" font-family="'Courier New', monospace">ONENOTE_CLIENT_SECRET</text>
  <text x="36" y="211" fill="#7a2060" font-size="7.5" font-family="'Courier New', monospace">ONENOTE_TENANT_ID</text>

  <line x1="26" y1="230" x2="274" y2="230" stroke="#6a1848" stroke-width="1" opacity="0.3"/>
  <text x="150" y="242" text-anchor="middle" fill="#cc5090" font-size="8" font-family="'Courier New', monospace">--onenote-title "..."  ·  --onenote-id</text>
  <text x="150" y="254" text-anchor="middle" fill="#7a2060" font-size="7.5" font-family="'Courier New', monospace">inpost auth --onenote  (one-time)</text>

</svg>