<svg xmlns="http://www.w3.org/2000/svg" viewBox="0 0 300 274" width="300" height="274">
  <defs>
    <linearGradient id="bgGrad" x1="0%" y1="0%" x2="30%" y2="100%">
      <stop offset="0%" style="stop-color:#0c0c14"/>
      <stop offset="100%" style="stop-color:#14142a"/>
    </linearGradient>
    <linearGradient id="notionG" x1="0%" y1="0%" x2="0%" y2="100%">
      <stop offset="0%" style="stop-color:#22223a"/>
      <stop offset="100%" style="stop-color:#16162a"/>
    </linearGradient>
    <linearGradient id="obsidianG" x1="0%" y1="0%" x2="0%" y2="100%">
      <stop offset="0%" style="stop-color:#1e1838"/>
      <stop offset="100%" style="stop-color:#130e28"/>
    </linearGradient>
    <linearGradient id="onenoteG" x1="0%" y1="0%" x2="0%" y2="100%">
      <stop offset="0%" style="stop-color:#38102e"/>
      <stop offset="100%" style="stop-color:#26081e"/>
    </linearGradient>
    <linearGradient id="evernoteG" x1="0%" y1="0%" x2="0%" y2="100%">
      <stop offset="0%" style="stop-color:#0d3018"/>
      <stop offset="100%" style="stop-color:#071e0e"/>
    </linearGradient>
  </defs>
  <rect width="300" height="274" fill="url(#bgGrad)" rx="12"/>
  <g opacity="0.025" stroke="#ffffff" stroke-width="1">
    <line x1="0" y1="137" x2="300" y2="137"/>
    <line x1="150" y1="0" x2="150" y2="274"/>
  </g>

  <rect x="20" y="20" width="260" height="234" rx="10" fill="url(#evernoteG)" stroke="#1a7a30" stroke-width="1.5"/>
  <rect x="20" y="20" width="260" height="4" rx="2" fill="#30ee60" opacity="0.35"/>
  <text x="150" y="50" text-anchor="middle" font-size="28">🐘</text>
  <text x="150" y="74" text-anchor="middle" fill="#30ee60" font-size="13" font-family="'Courier New', monospace" letter-spacing="3" font-weight="bold">EVERNOTE</text>
  <line x1="26" y1="82" x2="274" y2="82" stroke="#1a6a28" stroke-width="1" opacity="0.5"/>

  <rect x="28" y="90" width="244" height="72" rx="4" fill="#071a0c" stroke="#1a6a28" stroke-width="1"/>
  <text x="150" y="105" text-anchor="middle" fill="#28ee58" font-size="8" font-family="'Courier New', monospace" letter-spacing="2">DEVELOPER TOKEN</text>
  <line x1="33" y1="110" x2="259" y2="110" stroke="#0f3a18" stroke-width="1"/>
  <text x="36" y="123" fill="#18cc48" font-size="8" font-family="'Courier New', monospace">Personal access token (no OAuth)</text>
  <text x="36" y="136" fill="#12a838" font-size="8" font-family="'Courier New', monospace">Thrift SDK  ·  npm install evernote</text>
  <text x="36" y="149" fill="#0e7a28" font-size="7.5" font-family="'Courier New', monospace">evernote.com/api/DeveloperToken</text>

  <rect x="28" y="170" width="244" height="52" rx="4" fill="#050e08" stroke="#0f4a18" stroke-width="1"/>
  <text x="36" y="185" fill="#18cc48" font-size="8" font-family="'Courier New', monospace">EVERNOTE_TOKEN</text>
  <text x="36" y="198" fill="#18cc48" font-size="8" font-family="'Courier New', monospace">EVERNOTE_NOTEBOOK  (optional)</text>
  <text x="36" y="211" fill="#0e8a30" font-size="7.5" font-family="'Courier New', monospace">EVERNOTE_SANDBOX</text>

  <line x1="26" y1="230" x2="274" y2="230" stroke="#1a6a28" stroke-width="1" opacity="0.3"/>
  <text x="150" y="242" text-anchor="middle" fill="#28ee58" font-size="8" font-family="'Courier New', monospace">--evernote-title "..."  ·  --evernote-id</text>
  <text x="150" y="254" text-anchor="middle" fill="#12a838" font-size="7.5" font-family="'Courier New', monospace">GUID visible in Evernote desktop</text>

</svg>