<svg xmlns="http://www.w3.org/2000/svg" viewBox="0 0 300 258" width="300" height="258">
  <defs>
    <linearGradient id="bgGrad" x1="0%" y1="0%" x2="30%" y2="100%">
      <stop offset="0%" style="stop-color:#0c0c14"/>
      <stop offset="100%" style="stop-color:#14142a"/>
    </linearGradient>
    <linearGradient id="notionG" x1="0%" y1="0%" x2="0%" y2="100%">
      <stop offset="0%" style="stop-color:#22223a"/>
      <stop offset="100%" style="stop-color:#16162a"/>
    </linearGradient>
    <linearGradient id="obsidianG" x1="0%" y1="0%" x2="0%" y2="100%">
      <stop offset="0%" style="stop-color:#1e1838"/>
      <stop offset="100%" style="stop-color:#130e28"/>
    </linearGradient>
    <linearGradient id="onenoteG" x1="0%" y1="0%" x2="0%" y2="100%">
      <stop offset="0%" style="stop-color:#38102e"/>
      <stop offset="100%" style="stop-color:#26081e"/>
    </linearGradient>
    <linearGradient id="evernoteG" x1="0%" y1="0%" x2="0%" y2="100%">
      <stop offset="0%" style="stop-color:#0d3018"/>
      <stop offset="100%" style="stop-color:#071e0e"/>
    </linearGradient>
  </defs>
  <rect width="300" height="258" fill="url(#bgGrad)" rx="12"/>
  <g opacity="0.025" stroke="#ffffff" stroke-width="1">
    <line x1="0" y1="129" x2="300" y2="129"/>
    <line x1="150" y1="0" x2="150" y2="258"/>
  </g>

  <rect x="20" y="20" width="260" height="218" rx="10" fill="url(#obsidianG)" stroke="#5a3a9a" stroke-width="1.5"/>
  <rect x="20" y="20" width="260" height="4" rx="2" fill="#9a7aff" opacity="0.3"/>
  <text x="150" y="50" text-anchor="middle" font-size="28">🔮</text>
  <text x="150" y="74" text-anchor="middle" fill="#aa98e0" font-size="13" font-family="'Courier New', monospace" letter-spacing="3" font-weight="bold">OBSIDIAN</text>
  <line x1="26" y1="82" x2="274" y2="82" stroke="#3a2a6a" stroke-width="1" opacity="0.5"/>

  <rect x="28" y="90" width="244" height="62" rx="4" fill="#110c22" stroke="#3a2a5a" stroke-width="1"/>
  <text x="150" y="105" text-anchor="middle" fill="#6a5a9a" font-size="8" font-family="'Courier New', monospace" letter-spacing="2">LOCAL VAULT</text>
  <line x1="33" y1="110" x2="259" y2="110" stroke="#201840" stroke-width="1"/>
  <text x="38" y="122" fill="#584a88" font-size="8" font-family="'Courier New', monospace">📁 MyVault/</text>
  <text x="46" y="135" fill="#4a3a78" font-size="8" font-family="'Courier New', monospace">📂 Blog Posts/</text>
  <text x="54" y="147" fill="#3a2a68" font-size="7.5" font-family="'Courier New', monospace">📝 note.md</text>

  <rect x="28" y="160" width="244" height="42" rx="4" fill="#0c0a1a" stroke="#201838" stroke-width="1"/>
  <text x="36" y="175" fill="#4a3a78" font-size="8" font-family="'Courier New', monospace">OBSIDIAN_VAULT_PATH</text>
  <text x="36" y="192" fill="#4a3a78" font-size="8" font-family="'Courier New', monospace">OBSIDIAN_NOTES_DIR  (optional)</text>

  <line x1="26" y1="210" x2="274" y2="210" stroke="#3a2a6a" stroke-width="1" opacity="0.3"/>
  <text x="150" y="225" text-anchor="middle" fill="#6a5a9a" font-size="8" font-family="'Courier New', monospace">--obsidian-title "..."  ·  --obsidian-id</text>
  <text x="150" y="238" text-anchor="middle" fill="#3a2a6a" font-size="7.5" font-family="'Courier New', monospace">filesystem · no API key needed</text>

</svg>