<svg xmlns="http://www.w3.org/2000/svg" viewBox="0 0 410 140" width="410" height="140" font-family="'SF Pro Display', 'Inter', 'Segoe UI', -apple-system, sans-serif">
  <defs>
    <linearGradient id="accentGrad" x1="0%" y1="0%" x2="100%" y2="100%">
      <stop offset="0%" stop-color="#5bf5e8"/>
      <stop offset="100%" stop-color="#3ab5ad"/>
    </linearGradient>
    <linearGradient id="bgGrad" x1="0%" y1="0%" x2="100%" y2="100%">
      <stop offset="0%" stop-color="#0d1117"/>
      <stop offset="100%" stop-color="#111820"/>
    </linearGradient>
  </defs>

  <!-- Background -->
  <rect width="410" height="140" rx="14" fill="url(#bgGrad)"/>

  <!-- ─── Logomark: abstract note → arrow transformation ─── -->
  <g transform="translate(28, 24)">
    <!-- Document shape (rounded rectangle with folded corner) -->
    <path d="M4,4 L48,4 L60,16 L60,88 Q60,92 56,92 L4,92 Q0,92 0,88 L0,8 Q0,4 4,4 Z" fill="none" stroke="url(#accentGrad)" stroke-width="2.5"/>
    <!-- Folded corner -->
    <path d="M48,4 L48,16 L60,16" fill="none" stroke="url(#accentGrad)" stroke-width="2" opacity="0.6"/>

    <!-- Content lines inside document -->
    <line x1="12" y1="30" x2="44" y2="30" stroke="#4ecdc4" stroke-width="2" stroke-linecap="round" opacity="0.35"/>
    <line x1="12" y1="42" x2="38" y2="42" stroke="#4ecdc4" stroke-width="2" stroke-linecap="round" opacity="0.35"/>
    <line x1="12" y1="54" x2="42" y2="54" stroke="#4ecdc4" stroke-width="2" stroke-linecap="round" opacity="0.35"/>

    <!-- Send/publish arrow emerging from document -->
    <line x1="28" y1="72" x2="80" y2="72" stroke="url(#accentGrad)" stroke-width="2.5" stroke-linecap="round"/>
    <polyline points="70,62 80,72 70,82" fill="none" stroke="url(#accentGrad)" stroke-width="2.5" stroke-linecap="round" stroke-linejoin="round"/>
  </g>

  <!-- ─── Wordmark ─── -->
  <text x="132" y="82" font-size="56" font-weight="700" letter-spacing="-1.5">
    <tspan fill="#4ecdc4">in</tspan><tspan fill="#edf2f7">post</tspan>
  </text>

  <!-- Subtle underline accent under "post" -->
  <line x1="200" y1="92" x2="370" y2="92" stroke="#4ecdc4" stroke-width="1.5" opacity="0.3"/>

  <!-- Tagline -->
  <text x="134" y="114" font-size="12.5" fill="#5a7a8e" font-weight="500" letter-spacing="3">NOTEBOOK TO LINKEDIN</text>

</svg>