<svg xmlns="http://www.w3.org/2000/svg" viewBox="0 0 580 210" width="580" height="210">
  <defs>
    <linearGradient id="bgGrad" x1="0%" y1="0%" x2="30%" y2="100%">
      <stop offset="0%" style="stop-color:#0c0c14"/>
      <stop offset="100%" style="stop-color:#14142a"/>
    </linearGradient>
    <linearGradient id="notionG" x1="0%" y1="0%" x2="0%" y2="100%">
      <stop offset="0%" style="stop-color:#22223a"/>
      <stop offset="100%" style="stop-color:#16162a"/>
    </linearGradient>
    <linearGradient id="obsidianG" x1="0%" y1="0%" x2="0%" y2="100%">
      <stop offset="0%" style="stop-color:#1e1838"/>
      <stop offset="100%" style="stop-color:#130e28"/>
    </linearGradient>
    <linearGradient id="onenoteG" x1="0%" y1="0%" x2="0%" y2="100%">
      <stop offset="0%" style="stop-color:#38102e"/>
      <stop offset="100%" style="stop-color:#26081e"/>
    </linearGradient>
    <linearGradient id="evernoteG" x1="0%" y1="0%" x2="0%" y2="100%">
      <stop offset="0%" style="stop-color:#0d3018"/>
      <stop offset="100%" style="stop-color:#071e0e"/>
    </linearGradient>
    <linearGradient id="transformG" x1="0%" y1="0%" x2="100%" y2="100%">
      <stop offset="0%" style="stop-color:#172217"/>
      <stop offset="100%" style="stop-color:#0f180f"/>
    </linearGradient>
    <linearGradient id="aiG" x1="0%" y1="0%" x2="100%" y2="100%">
      <stop offset="0%" style="stop-color:#0c1a30"/>
      <stop offset="100%" style="stop-color:#081020"/>
    </linearGradient>
    <linearGradient id="publishG" x1="0%" y1="0%" x2="100%" y2="100%">
      <stop offset="0%" style="stop-color:#172217"/>
      <stop offset="100%" style="stop-color:#0f180f"/>
    </linearGradient>
    <linearGradient id="liG" x1="0%" y1="0%" x2="100%" y2="100%">
      <stop offset="0%" style="stop-color:#101e2e"/>
      <stop offset="100%" style="stop-color:#08131e"/>
    </linearGradient>
    <marker id="arrDown" markerWidth="10" markerHeight="10" refX="5" refY="10" orient="0">
      <polygon points="0,0 10,0 5,10" fill="#3a3a5a"/>
    </marker>
    <marker id="arrDownGreen" markerWidth="10" markerHeight="10" refX="5" refY="10" orient="0">
      <polygon points="0,0 10,0 5,10" fill="#2a7a4a"/>
    </marker>
    <marker id="arrDownBlue" markerWidth="10" markerHeight="10" refX="5" refY="10" orient="0">
      <polygon points="0,0 10,0 5,10" fill="#2a5a8a"/>
    </marker>
  </defs>
  <!-- Background -->
  <rect width="580" height="210" fill="url(#bgGrad)" rx="12"/>
  <!-- Subtle grid -->
  <g opacity="0.025" stroke="#ffffff" stroke-width="1">
    <line x1="145" y1="0" x2="145" y2="210"/>
    <line x1="290" y1="0" x2="290" y2="210"/>
    <line x1="435" y1="0" x2="435" y2="210"/>
  </g>

  <rect x="28" y="16" width="524" height="178" rx="8" fill="url(#liG)" stroke="#1a4a7a" stroke-width="1"/>
  <rect x="28" y="16" width="4" height="178" rx="2" fill="#0a66c2" opacity="0.6"/>
  <rect x="32" y="16" width="520" height="34" rx="6" fill="#081220" opacity="0.9"/>
  <rect x="40" y="23" width="16" height="16" rx="3" fill="#0a1828" stroke="#1a4a7a" stroke-width="1"/>
  <text x="48" y="35" text-anchor="middle" fill="#2a6aaa" font-size="8" font-family="'Courier New', monospace" font-weight="bold">5</text>
  <rect x="62" y="23" width="20" height="16" rx="3" fill="#081220" stroke="#1a4a7a" stroke-width="1"/>
  <text x="72" y="35" text-anchor="middle" font-size="11">💼</text>
  <text x="90" y="35" fill="#3a8aee" font-size="11" font-family="'Courier New', monospace" letter-spacing="2" font-weight="bold">LINKEDIN</text>
  <rect x="448" y="23" width="64" height="16" rx="8" fill="#081a28" stroke="#0a66c2" stroke-width="1"/>
  <text x="480" y="35" text-anchor="middle" fill="#3a8aee" font-size="7" font-family="'Courier New', monospace">● LIVE</text>
  <line x1="33" y1="52" x2="547" y2="52" stroke="#1a4a7a" stroke-width="1" opacity="0.3"/>
  <rect x="36" y="60" width="240" height="124" rx="5" fill="#0c1824" stroke="#162e46" stroke-width="1"/>
  <circle cx="54" cy="77" r="8" fill="#1a3a5a"/>
  <text x="54" y="81" text-anchor="middle" fill="#3a7aaa" font-size="7.5">👤</text>
  <rect x="68" y="72" width="80" height="4" rx="2" fill="#162e46"/>
  <rect x="68" y="80" width="55" height="3" rx="1" fill="#102030"/>
  <line x1="41" y1="91" x2="271" y2="91" stroke="#162e46" stroke-width="1"/>
  <rect x="41" y="97" width="225" height="3" rx="1" fill="#162e46"/>
  <rect x="41" y="104" width="200" height="3" rx="1" fill="#102030"/>
  <rect x="41" y="111" width="210" height="3" rx="1" fill="#102030"/>
  <rect x="41" y="118" width="185" height="3" rx="1" fill="#102030"/>
  <text x="41" y="134" fill="#0a66c2" font-size="7" font-family="'Courier New', monospace">#dfir #automation #devtools</text>
  <rect x="41" y="140" width="225" height="20" rx="4" fill="#081a2e" stroke="#0a4a8a" stroke-width="1"/>
  <text x="153" y="154" text-anchor="middle" fill="#3a8aee" font-size="7" font-family="'Courier New', monospace">🔗  Read the full post →</text>
  <text x="41" y="176" fill="#1a3a5a" font-size="6.5" font-family="'Courier New', monospace">visible on feed and profile</text>
  <rect x="286" y="60" width="258" height="124" rx="5" fill="#081420" stroke="#122438" stroke-width="1"/>
  <text x="415" y="76" text-anchor="middle" fill="#2a6a9a" font-size="7.5" font-family="'Courier New', monospace" letter-spacing="1">URL SAVED BACK TO SOURCE</text>
  <line x1="291" y1="82" x2="539" y2="82" stroke="#102030" stroke-width="1"/>
  <text x="296" y="99" fill="#2a6a8a" font-size="7.5" font-family="'Courier New', monospace">📄 Notion → LinkedIn URL field</text>
  <text x="296" y="114" fill="#1a5a7a" font-size="7.5" font-family="'Courier New', monospace">🔮 Obsidian → linkedin_url FM</text>
  <text x="296" y="129" fill="#1a5a7a" font-size="7.5" font-family="'Courier New', monospace">📓 OneNote → page link appended</text>
  <text x="296" y="144" fill="#1a5a7a" font-size="7.5" font-family="'Courier New', monospace">🐘 Evernote → sourceURL attr</text>
  <text x="296" y="168" fill="#12405a" font-size="7" font-family="'Courier New', monospace">Status → Published · Date recorded</text>

</svg>